# xmcd CD database file
#
# Track frame offsets:
#	150
#	24700
#	39617
#
# Disc length: 822 seconds
#
# Revision: 0
# Processed by: cddbd v1.5PL3 Copyright (c) Steve Scherf et al.
# Submitted via: CDex 1.51
#
DISCID=1f033403
DTITLE=melody. - Crystal Love
DYEAR=2003
DGENRE=Japanese Pop
TTITLE0=Crystal Love
TTITLE1=Do you hear what I hear?
TTITLE2=Crystal Love -m&M Remix-
EXTD=YEAR: 2003
EXTT0=
EXTT1=
EXTT2=
PLAYORDER=
